<svg xmlns="http://www.w3.org/2000/svg" width="256" height="256" viewBox="0 0 256 256" role="img" aria-label="Circuitoon"><title>Circuitoon</title><g transform="translate(0 0) scale(4.266666666666667) translate(-2 -5)"><rect x="4" y="19" width="9" height="6" rx="1.6" fill="#C9CFD4" stroke="#23282F" stroke-width="2.6"/><rect x="51" y="19" width="9" height="6" rx="1.6" fill="#C9CFD4" stroke="#23282F" stroke-width="2.6"/><rect x="4" y="31" width="9" height="6" rx="1.6" fill="#C9CFD4" stroke="#23282F" stroke-width="2.6"/><rect x="51" y="31" width="9" height="6" rx="1.6" fill="#C9CFD4" stroke="#23282F" stroke-width="2.6"/><rect x="4" y="43" width="9" height="6" rx="1.6" fill="#C9CFD4" stroke="#23282F" stroke-width="2.6"/><rect x="51" y="43" width="9" height="6" rx="1.6" fill="#C9CFD4" stroke="#23282F" stroke-width="2.6"/>
<path d="M18 9H27A5 5 0 0 0 37 9H46A6 6 0 0 1 52 15V51A6 6 0 0 1 46 57H18A6 6 0 0 1 12 51V15A6 6 0 0 1 18 9Z" transform="translate(2 3)" fill="#4A5A50"/>
<path d="M18 9H27A5 5 0 0 0 37 9H46A6 6 0 0 1 52 15V51A6 6 0 0 1 46 57H18A6 6 0 0 1 12 51V15A6 6 0 0 1 18 9Z" fill="#F4B400" stroke="#23282F" stroke-width="3.4" stroke-linejoin="round"/>
<ellipse cx="25" cy="29" rx="3.6" ry="4.8" fill="#23282F"/><ellipse cx="39" cy="29" rx="3.6" ry="4.8" fill="#23282F"/>
<circle cx="26.2" cy="27.2" r="1.3" fill="#FFFFFF"/><circle cx="40.2" cy="27.2" r="1.3" fill="#FFFFFF"/>
<path d="M24.5 40Q32 47 39.5 40" fill="none" stroke="#23282F" stroke-width="3.2" stroke-linecap="round"/></g></svg>
